<mxfile host="app.diagrams.net" modified="2024-01-13T17:00:45.261Z" agent="Mozilla/5.0 (Windows NT 10.0; Win64; x64) AppleWebKit/537.36 (KHTML, like Gecko) Chrome/122.0.0.0 Safari/537.36 Edg/122.0.0.0" version="22.1.18" etag="4jj9Uy4R-EkWk1pU9dMt" type="github">
  <diagram name="第 1 页" id="UXFmXoKNFm-Y7onhF2u3">
    <mxGraphModel>
      <root>
        <mxCell id="0" />
        <mxCell id="1" parent="0" />
      </root>
    </mxGraphModel>
  </diagram>
</mxfile>
